# AST/ASF file generated using VICON BodyLanguage
# -----------------------------------------------
:version 1.10
:name VICON
:units
  mass 1.0
  length 0.1
  angle deg
:documentation
   .ast/.asf automatically generated from VICON data using
   VICON BodyBuilder and BodyLanguage model FULLBODY5.MOD
:root
   order TX TY TZ RZ RY RX
   axis XYZ
   position 0 0 0  
   orientation 0 -0 0 
:bonedata
  begin
     id 1 
     name lhipjoint
     direction 0.969109 -0.218487 0.11442 
     length 0.544217 
     axis 0 -0 0  XYZ
  end
  begin
     id 2 
     name lfemur
     direction 0.173648 -0.984808 0  
     length 1.81499  
     axis 0 -0 10  XYZ
    dof rx ry rz
    limits (-180.0 180.0)
           (-180.0 180.0)
           (-180.0 180.0)
  end
  begin
     id 3 
     name ltibia
     direction 0.173515 -0.984831 0   
     length 1.55296   
     axis 0 -0 10   XYZ
    dof rx ry rz
    limits (-180.0 180.0)
           (-180.0 180.0)
           (-180.0 180.0)
  end
  begin
     id 4 
     name lfoot
     direction 7.36097e-012 -0.333012 0.942922   
     length 0.509062   
     axis -90 -1.73656e-015 10   XYZ
    dof rx ry rz
    limits (-180.0 180.0)
           (-180.0 180.0)
           (-180.0 180.0)
  end
  begin
     id 5 
     name ltoes
     direction 7.7847e-012 -4.42403e-011 1   
     length 0.249732   
     axis -90 -1.73656e-015 10   XYZ
    dof rx ry rz
    limits (-180.0 180.0)
           (-180.0 180.0)
           (-180.0 180.0)
  end
  begin
     id 6 
     name rhipjoint
     direction -0.966745 -0.226554 0.118645   
     length 0.524838  
     axis 0 -0 0  XYZ 
  end
  begin
     id 7 
     name rfemur
     direction -0.173648 -0.984808 0   
     length 1.84625   
     axis 0 -0 -10   XYZ
    dof rx ry rz
    limits (-180.0 180.0)
           (-180.0 180.0)
           (-180.0 180.0)
  end
  begin
     id 8 
     name rtibia
     direction -0.173714 -0.984796 0   
     length 1.577   
     axis 0 -0 -10   XYZ
    dof rx ry rz
    limits (-180.0 180.0)
           (-180.0 180.0)
           (-180.0 180.0)
 end
 begin
     id 9 
     name rfoot
     direction -0.0183819 -0.0406144 0.999006   
     length 0.490111  
     axis -90 1.73656e-015 -10   XYZ
    dof rx ry rz
    limits (-180.0 180.0)
           (-180.0 180.0)
           (-180.0 180.0)
  end
  begin
     id 10 
     name rtoes
     direction -7.79087e-012 -4.42375e-011 1   
     length 0.245053   
     axis -90 1.73656e-015 -10   XYZ
    dof rx ry rz
    limits (-180.0 180.0)
           (-180.0 180.0)
           (-180.0 180.0)
  end
  begin
     id 11 
     name lowerback
     direction -0.0664844 0.980601 0.184393   
     length 0.458979   
     axis 0 -0 0   XYZ
    dof rx ry rz
    limits (-180.0 180.0)
           (-180.0 180.0)
           (-180.0 180.0)
  end
  begin
     id 12 
     name upperback
     direction 0.0135995 0.999573 0.02588   
     length 0.463983   
     axis 0 -0 0   XYZ
    dof rx ry rz
    limits (-180.0 180.0)
           (-180.0 180.0)
           (-180.0 180.0)
  end
  begin
     id 13 
     name thorax
     direction 0.0468402 0.997311 -0.0563691   
     length 0.482746   
     axis 0 -0 0   XYZ
    dof rx ry rz
    limits (-180.0 180.0)
           (-180.0 180.0)
           (-180.0 180.0)
  end
  begin
     id 14 
     name lowerneck
     direction -0.00174311 0.988586 -0.150647   
     length 0.364383   
     axis 0 -0 0   XYZ
    dof rx ry rz
    limits (-180.0 180.0)
           (-180.0 180.0)
           (-180.0 180.0)
  end
  begin
     id 15 
     name upperneck
     direction -0.02653 0.999379 -0.0231908   
     length 0.361006   
     axis 0 -0 0   XYZ
    dof rx ry rz
    limits (-180.0 180.0)
           (-180.0 180.0)
           (-180.0 180.0)
  end
  begin
     id 16
     name head
     direction -0.00819207 0.999941 0.00714285  
     length 0.378714  
     axis 0 -0 0   XYZ
    dof rx ry rz
    limits (-180.0 180.0)
           (-180.0 180.0)
           (-180.0 180.0)
  end
  begin
     id 17 
     name lshoulderjoint
     direction 0.981627 -0.190809 0  
     length 0.612969  
     axis 0 -0 -11   XYZ
    dof rx ry rz
    limits (-180.0 180.0)
           (-180.0 180.0)
           (-180.0 180.0)
  end
  begin
     id 18 
     name lhumerus
     direction 0.48481 -0.87462 -9.72962e-027   
     length 1.19637   
     axis -180 5.14477e-009 -151   XYZ
    dof rx ry rz
    limits (-180.0 180.0)
           (-180.0 180.0)
           (-180.0 180.0)
  end
  begin
     id 19
     name lradius
     direction 0.48481 -0.87462 -2.35761e-026   
     length 0.637735   
     axis -180 5.14477e-009 -151   XYZ
    dof rx ry rz
    limits (-180.0 180.0)
           (-180.0 180.0)
           (-180.0 180.0)
  end
  begin
     id 20
     name lwrist
     direction 0.48481 -0.87462 -5.51856e-026   
     length 0.318868   
     axis -180 5.14477e-009 -151   XYZ
    dof rx ry rz
    limits (-180.0 180.0)
           (-180.0 180.0)
           (-180.0 180.0)
  end
  begin
     id 21 
     name lhand
     direction 0.477747 -0.861928 -0.169816   
     length 0.29526   
     axis -180 5.14477e-009 -151   XYZ
    dof rx ry rz
    limits (-180.0 180.0)
           (-180.0 180.0)
           (-180.0 180.0)
  end
  begin
     id 22 
     name rshoulderjoint
     direction -0.981627 -0.190809 0   
     length 0.572347  
     axis 0 -0 11   XYZ 
    dof rx ry rz
    limits (-180.0 180.0)
           (-180.0 180.0)
           (-180.0 180.0)
  end
  begin
     id 23 
     name rhumerus
     direction -0.48481 -0.87462 1.64836e-026  
     length 1.28846   
     axis 180 5.14477e-009 151   XYZ
    dof rx ry rz
    limits (-180.0 180.0)
           (-180.0 180.0)
           (-180.0 180.0)
  end
  begin
     id 24 
     name rradius
     direction -0.48481 -0.87462 2.86827e-026   
     length 0.62107   
     axis 180 5.14477e-009 151   XYZ
    dof rx ry rz
    limits (-180.0 180.0)
           (-180.0 180.0)
           (-180.0 180.0)
  end
  begin
     id 25 
     name rwrist
     direction -0.48481 -0.87462 5.20942e-026   
     length 0.310535   
     axis 180 5.14477e-009 151   XYZ
    dof rx ry rz
    limits (-180.0 180.0)
           (-180.0 180.0)
           (-180.0 180.0)
  end
  begin
     id 26
     name rhand
     direction -0.477664 -0.861515 -0.172133   
     length 0.291321   
     axis 180 5.14477e-009 151   XYZ
    dof rx ry rz
    limits (-180.0 180.0)
           (-180.0 180.0)
           (-180.0 180.0)
  end
:hierarchy
  begin
    root lhipjoint rhipjoint lowerback 
    lhipjoint lfemur
    lfemur ltibia
    ltibia lfoot
    lfoot ltoes
    rhipjoint rfemur
    rfemur rtibia
    rtibia rfoot
    rfoot rtoes
    lowerback upperback
    upperback thorax
    thorax lowerneck lshoulderjoint rshoulderjoint
    lowerneck upperneck
    upperneck head
    lshoulderjoint lhumerus
    lhumerus lradius
    lradius lwrist
    lwrist lhand
    rshoulderjoint rhumerus
    rhumerus rradius
    rradius rwrist
    rwrist rhand
  end

:FULLY-SPECIFIED
:DEGREES
389
root 8.40761 3.65762 -0.221991 107.884 -74.9886 102.987
lowerback -14.4135 -0.113051 -9.92759
upperback -3.93118 1.08239 0.0315992
thorax 3.67897 0.415244 5.83155
lowerneck 15.8661 -3.00056 0.756906
upperneck 12.0742 -4.38124 -4.14412
head 1.10723 -2.45939 -1.27458
rshoulderjoint -0.0973491 0.176885 -39.8264
rhumerus 152.834 -55.004 -160.37
rradius 35.1071 2.76708e-013 1.49287e-013
rwrist 2.00109e-014 -6.59602 -7.03384e-014
rhand 11.3927 6.077 -22.9099
lshoulderjoint -1.29172 -2.51785 38.1704
lhumerus 147.157 71.5807 165.064
lradius 34.4244 -2.13097e-013 -1.96996e-013
lwrist 3.93897e-014 10.2342 -8.51424e-014
lhand 24.2084 -9.79173 17.2236
rfemur -36.7204 15.1694 -0.196378
rtibia 15.324 -6.36111e-015 1.39149e-014
rfoot -176.844 -47.3834 157.232
rtoes -1.0302e-013 -1.83466e-013 1.59823e-013
lfemur -14.4497 -10.8126 -18.2759
ltibia 10.5993 -9.54166e-015 -1.59028e-015
lfoot -9.69567 2.43187 12.2156
ltoes 9.24349e-014 -2.09531e-014 -6.26172e-015
390
root 8.43167 3.66028 -0.221935 108.602 -75.0739 103.706
lowerback -14.2678 -0.0579417 -9.83778
upperback -3.95415 1.12664 -0.0269983
thorax 3.57178 0.443516 5.72155
lowerneck 15.8809 -2.9917 0.839867
upperneck 12.11 -4.35821 -4.17646
head 1.11456 -2.44644 -1.30026
rshoulderjoint -0.0850897 0.155064 -39.7554
rhumerus 152.611 -55.13 -160.146
rradius 35.1286 7.31528e-014 1.09332e-014
rwrist -1.7607e-013 -6.52344 -8.44338e-014
rhand 11.4308 6.0183 -22.815
lshoulderjoint -1.29919 -2.51862 38.2977
lhumerus 147.485 71.6815 165.338
lradius 34.4221 -6.20208e-014 -7.33515e-014
lwrist 2.09501e-013 10.1244 -8.85459e-014
lhand 24.3446 -9.68984 17.0213
rfemur -37.061 15.4065 -0.121177
rtibia 18.1808 -4.77083e-015 1.03368e-014
rfoot -176.135 -46.8629 156.367
rtoes 1.47101e-014 -1.39149e-015 5.80451e-014
lfemur -14.4421 -10.6511 -18.2254
ltibia 10.0081 0 5.56597e-015
lfoot -9.14022 2.20919 12.3295
ltoes 4.05521e-014 -2.85039e-014 2.16675e-014
391
root 8.45523 3.66254 -0.221995 109.249 -75.118 104.416
lowerback -14.2031 -0.00774538 -9.72378
upperback -3.95887 1.16983 -0.0315117
thorax 3.52793 0.467849 5.6577
lowerneck 15.8812 -2.97691 0.860179
upperneck 12.0873 -4.33501 -4.18669
head 1.10694 -2.43365 -1.30746
rshoulderjoint -0.0966526 0.176653 -39.6846
rhumerus 152.503 -55.2176 -159.951
rradius 35.1556 -4.77083e-014 4.57205e-015
rwrist 2.52904e-013 -6.52907 9.48891e-014
rhand 11.4384 6.01948 -22.7872
lshoulderjoint -1.2729 -2.45952 38.3745
lhumerus 147.492 71.7453 165.335
lradius 34.4111 3.81667e-014 6.95746e-014
lwrist -2.60242e-013 10.0692 1.13717e-013
lhand 24.5314 -9.66235 16.8086
rfemur -37.2029 14.9874 0.383296
rtibia 20.8495 1.90833e-014 9.54166e-015
rfoot -175.476 -46.4946 156.281
rtoes -1.39149e-014 -1.61016e-014 8.34896e-014
lfemur -14.4736 -10.4908 -18.1048
ltibia 9.46984 -2.22639e-014 -1.59028e-015
lfoot -8.58467 2.28666 12.2112
ltoes 4.55217e-014 -8.96239e-015 1.99779e-014
392
root 8.4785 3.66416 -0.222218 109.921 -75.1277 105.073
lowerback -14.1983 0.0264284 -9.70937
upperback -3.96538 1.21102 -0.0191952
thorax 3.51155 0.489207 5.66923
lowerneck 15.8652 -2.95252 0.814065
upperneck 12.0864 -4.30902 -4.20694
head 1.11014 -2.42293 -1.30749
rshoulderjoint -0.0933148 0.17022 -39.7316
rhumerus 152.295 -55.2999 -159.709
rradius 35.1619 -7.31528e-013 -4.37326e-013
rwrist 6.72358e-014 -6.589 1.35672e-013
rhand 11.4398 6.08812 -22.7959
lshoulderjoint -1.28266 -2.48539 38.3085
lhumerus 147.954 71.8056 165.643
lradius 34.4164 5.61368e-013 4.22219e-013
lwrist -1.43448e-013 10.0737 8.52511e-014
lhand 24.6606 -9.66369 16.6382
rfemur -37.2912 14.5734 0.777634
rtibia 23.3797 -1.43125e-014 -3.53837e-014
rfoot -174.849 -46.1505 156.166
rtoes 1.86062e-013 1.93716e-013 -1.83677e-013
lfemur -14.5831 -10.3378 -18.0503
ltibia 9.02015 1.43125e-014 -1.27222e-014
lfoot -8.08355 2.20666 12.2137
ltoes -1.82683e-013 9.48141e-014 5.06901e-015
393
root 8.50142 3.66552 -0.222764 110.57 -75.1514 105.693
lowerback -14.1845 0.0663289 -9.73531
upperback -3.97193 1.2647 -0.0127382
thorax 3.487 0.517023 5.69911
lowerneck 15.8326 -2.94453 0.795802
upperneck 12.1141 -4.30076 -4.22215
head 1.12435 -2.4207 -1.31071
rshoulderjoint -0.0980357 0.178959 -39.7145
rhumerus 152.273 -55.3965 -159.563
rradius 35.1824 1.65389e-013 6.61953e-014
rwrist -4.76255e-014 -6.59071 -7.64909e-014
rhand 11.4209 6.07215 -22.8917
lshoulderjoint -1.27861 -2.47384 38.3433
lhumerus 148.015 71.8786 165.66
lradius 34.4209 -2.06736e-014 -2.52457e-014
lwrist 8.10295e-014 9.94462 -2.90616e-014
lhand 24.8616 -9.55889 16.4219
rfemur -37.2977 14.2297 1.10286
rtibia 25.8166 -4.77083e-015 -1.11319e-014
rfoot -174.255 -45.8061 155.977
rtoes 9.14409e-014 -2.18663e-014 0
lfemur -14.7317 -10.1975 -18.0106
ltibia 8.6921 1.27222e-014 -3.18055e-015
lfoot -7.66033 2.08214 12.2152
ltoes -4.51241e-014 2.25201e-014 -1.19271e-014
394
root 8.52396 3.66644 -0.223667 111.156 -75.1611 106.266
lowerback -14.2 0.0924708 -9.72444
upperback -3.98406 1.29776 -0.0177553
thorax 3.47727 0.533834 5.69308
lowerneck 15.8443 -2.92559 0.809615
upperneck 12.065 -4.27144 -4.25503
head 1.10611 -2.40425 -1.32362
rshoulderjoint -0.101386 0.185269 -39.6891
rhumerus 152.117 -55.4947 -159.317
rradius 35.2108 -1.20861e-013 -1.33583e-013
rwrist -8.20457e-014 -6.60139 -8.40468e-014
rhand 11.3891 6.0745 -23.0015
lshoulderjoint -1.2787 -2.4752 38.3323
lhumerus 148.449 71.9653 165.942
lradius 34.4316 1.145e-013 1.73937e-014
lwrist 7.54795e-014 9.94445 -1.12513e-013
lhand 24.9913 -9.55725 16.2604
rfemur -37.2393 13.9559 1.39779
rtibia 28.1625 -3.02153e-014 1.59028e-015
rfoot -173.703 -45.4831 155.81
rtoes -2.06736e-014 -2.36554e-013 3.4191e-014
lfemur -14.9568 -10.0651 -17.9441
ltibia 8.50717 7.95139e-015 2.46493e-014
lfoot -7.30626 2.05859 12.2019
ltoes -1.28216e-014 -1.14337e-013 -3.47873e-014
395
root 8.54609 3.66688 -0.224787 111.738 -75.1994 106.813
lowerback -14.2218 0.122162 -9.77177
upperback -3.97139 1.3467 -0.0132444
thorax 3.49269 0.556744 5.73336
lowerneck 15.8172 -2.92554 0.786769
upperneck 12.0439 -4.27371 -4.24656
head 1.10401 -2.40555 -1.31702
rshoulderjoint -0.0732312 0.133836 -39.6862
rhumerus 151.925 -55.5693 -159.023
rradius 35.2085 5.50236e-013 2.49773e-013
rwrist -1.6811e-014 -6.65082 -2.30189e-013
rhand 11.3523 6.12237 -23.1196
lshoulderjoint -1.26517 -2.4449 38.3714
lhumerus 148.484 72.037 165.907
lradius 34.4457 -3.59403e-013 -3.15571e-013
lwrist 9.27059e-014 9.84198 -1.34519e-013
lhand 25.1578 -9.47183 16.0563
rfemur -37.0995 13.7274 1.64191
rtibia 30.4526 2.38542e-014 1.98785e-014
rfoot -173.172 -45.1276 155.501
rtoes 4.92986e-014 -2.84262e-014 3.33958e-014
lfemur -15.1623 -9.94677 -17.9037
ltibia 8.36668 -3.18055e-014 -2.38542e-015
lfoot -6.99936 1.98637 12.2004
ltoes 8.91549e-014 -2.20185e-014 -1.55052e-014
396
root 8.56793 3.66715 -0.22622 112.265 -75.2197 107.36
lowerback -14.2389 0.156799 -9.73753
upperback -3.99989 1.38596 -0.01276
thorax 3.46588 0.577881 5.72078
lowerneck 15.8597 -2.91355 0.795569
upperneck 12.0134 -4.25761 -4.24541
head 1.08784 -2.39661 -1.31752
rshoulderjoint -0.0816248 0.14935 -39.6582
rhumerus 151.856 -55.7107 -158.85
rradius 35.2284 1.145e-013 5.18828e-014
rwrist 6.40499e-015 -6.71048 -4.17513e-014
rhand 11.3002 6.16313 -23.2443
lshoulderjoint -1.26692 -2.44474 38.405
lhumerus 148.791 72.1712 166.089
lradius 34.4789 -1.31993e-013 -1.48393e-013
lwrist 1.12955e-014 9.76335 -9.92142e-014
lhand 25.295 -9.39763 15.8616
rfemur -36.8985 13.6039 1.88492
rtibia 32.6639 -1.11319e-014 1.94809e-014
rfoot -172.882 -44.8078 155.393
rtoes -6.36111e-015 -7.32522e-014 7.63333e-014
lfemur -15.4171 -9.82254 -17.7948
ltibia 8.30486 4.77083e-015 1.90833e-014
lfoot -6.71392 2.11043 12.1772
ltoes 6.50026e-014 -8.37908e-014 2.08724e-015
397
root 8.58966 3.66722 -0.227811 112.668 -75.2414 107.786
lowerback -14.3049 0.182459 -9.72671
upperback -4.00916 1.423 0.00990545
thorax 3.48518 0.595181 5.74649
lowerneck 15.9186 -2.91132 0.793799
upperneck 11.9686 -4.25472 -4.26947
head 1.06381 -2.39414 -1.32324
rshoulderjoint -0.0980361 0.179491 -39.643
rhumerus 151.811 -55.8223 -158.666
rradius 35.2483 -1.52667e-013 -1.98884e-013
rwrist -1.5451e-013 -6.6787 -1.70472e-013
rhand 11.2937 6.13233 -23.3196
lshoulderjoint -1.24399 -2.39408 38.4674
lhumerus 148.75 72.2891 166.024
lradius 34.5084 1.22451e-013 9.93923e-017
lwrist 1.76869e-013 9.71258 -1.71273e-013
lhand 25.474 -9.36671 15.6125
rfemur -36.632 13.4225 2.14057
rtibia 34.788 -3.18055e-014 2.38542e-015
rfoot -172.607 -44.5292 155.375
rtoes -4.77083e-014 -1.62805e-013 5.88403e-014
lfemur -15.7296 -9.72859 -17.6759
ltibia 8.3458 7.95139e-015 1.74931e-014
lfoot -6.51066 2.13471 12.1607
ltoes 6.5102e-014 -9.48684e-014 -3.20043e-014
